<?xml version="1.0" standalone="no"?><!DOCTYPE svg PUBLIC "-//W3C//DTD SVG 1.1//EN" "http://www.w3.org/Graphics/SVG/1.1/DTD/svg11.dtd"><svg t="1519793219614" class="icon" style="" viewBox="0 0 1024 1024" version="1.1" xmlns="http://www.w3.org/2000/svg" p-id="10982" xmlns:xlink="http://www.w3.org/1999/xlink" width="200" height="200"><defs><style type="text/css"></style></defs><path d="M626.427634 436.290691 396.90517 436.290691l0 29.072129 229.522464 0L626.427634 436.290691zM632.122333 516.682649 391.192052 516.682649l-0.560772 0 0 0c-12.527314 0-23.916712-5.135974-31.890314-13.117762-8.550747-8.550747-13.685697-19.949354-13.685697-32.498158l0 0 0 0 0-40.479947c0-12.546757 5.134951-23.945365 13.685697-32.498158l0 0c7.973602-7.982812 19.363-13.68672 32.450063-13.68672l0 0.568958 240.930281 0 0 0c12.528338 0 23.917736 5.134951 32.468482 13.117762l0 0c7.971555 8.552793 13.088086 19.951401 13.088086 32.498158l0 40.479947c0 12.548804-5.116531 23.946388-13.088086 32.498158C656.040069 511.547699 644.650671 516.682649 632.122333 516.682649L632.122333 516.682649zM115.532805 264.101004l792.247752 0 0-68.991304L115.532805 195.1097 115.532805 264.101004zM195.835735 827.424926l631.640867 0L827.476603 315.411623 195.835735 315.411623 195.835735 827.424926zM109.857549 143.230122l803.616684 0 0 0c12.528338 0 23.916712 5.125741 32.468482 13.676487 7.972579 7.982812 13.088086 19.390629 13.088086 32.508391l0 80.389912c0 12.537548-5.115508 23.947412-13.088086 32.498158-8.55177 7.981788-19.940145 13.107529-32.468482 13.107529L878.726847 315.4106l0 517.708002c0 12.548804-5.115508 23.938202-13.105482 32.488948-8.532327 7.993045-19.923772 13.126972-32.451086 13.126972l0 0L190.161503 878.734522l0 0c-12.546757 0-24.496927-5.134951-32.469506-13.126972-8.550747-8.550747-13.666254-19.940145-13.666254-32.488948L144.025743 315.411623l-34.167171 0 0 0c-13.108552 0-24.496927-5.125741-32.469506-13.107529-8.550747-8.550747-13.666254-19.960611-13.666254-32.498158l0-80.389912c0-12.546757 5.115508-24.52558 13.666254-32.508391C85.360621 148.355863 96.750019 143.230122 109.857549 143.230122L109.857549 143.230122z" p-id="10983"></path></svg>