<?xml version="1.0" standalone="no"?><!DOCTYPE svg PUBLIC "-//W3C//DTD SVG 1.1//EN" "http://www.w3.org/Graphics/SVG/1.1/DTD/svg11.dtd"><svg t="1519792721303" class="icon" style="" viewBox="0 0 1024 1024" version="1.1" xmlns="http://www.w3.org/2000/svg" p-id="2482" xmlns:xlink="http://www.w3.org/1999/xlink" width="200" height="200"><defs><style type="text/css"></style></defs><path d="M512 38.4A473.6 473.6 0 1 0 985.6 512 473.6 473.6 0 0 0 512 38.4zM608 832h-192a32 32 0 0 1-32-32v-64a32 32 0 0 1 32-32h192a32 32 0 0 1 32 32v64a32 32 0 0 1-32 32z m135.776-32.928l-21.6-86.4A96 96 0 0 0 629.056 640h-234.112a96 96 0 0 0-93.12 72.704l-21.6 86.4a32 32 0 0 1-52.352 16.224 414.112 414.112 0 0 1-131.2-329.92A416 416 0 0 1 928 512a414.016 414.016 0 0 1-131.872 303.264 32 32 0 0 1-52.352-16.192z" fill="" p-id="2483"></path><path d="M512 512m-57.6 0a57.6 57.6 0 1 0 115.2 0 57.6 57.6 0 1 0-115.2 0Z" fill="" p-id="2484"></path><path d="M753.056 270.944s-195.392 254.208-211.616 270.464a41.6 41.6 0 0 1-58.816-58.816c16.192-16.256 270.432-211.648 270.432-211.648zM642.048 254.784l39.936-69.216 27.712 16-39.936 69.216zM185.568 682.016l69.216-40 16 27.648-69.248 40zM753.248 354.24l69.216-40 16 27.68-69.216 40zM800 496h80v32H800zM144 496H224v32H144zM753.216 669.728l16-27.68 69.248 40-16 27.68zM185.536 341.984l16-27.68 69.248 40-16 27.68zM314.272 201.536l27.712-16 40 69.216-27.744 16zM496 144h32V224h-32z" fill="" p-id="2485"></path></svg>